           <svg xml:space="preserve" viewBox="0 0 1024 1024"><path d="M182 402c5-24 11-49 18-72 7-21 16-41 26-62 7-17 17-32 27-48s23-31 36-46a305 305 0 0 1 93-72l20-11c27-13 56-19 85-22 11-1 21-2 32-1a250 250 0 0 1 122 31c17 9 34 18 49 30l37 35a420 420 0 0 1 106 200l10 38c4 21 8 42 9 64 1 17 2 33 1 49-1 23-3 45-6 67-2 18-6 35-9 53l-9 34a527 527 0 0 1-53 118 376 376 0 0 1-145 135 257 257 0 0 1-174 23c-24-5-48-13-70-25-13-7-26-14-38-23-21-17-42-34-59-55-13-15-27-30-37-47l-25-42c-6-11-11-24-16-36a572 572 0 0 1-40-206c1-31 1-61 7-91l3-18m213 505c7 3 14 8 22 10 19 8 39 14 60 16s41 4 61 2c26-3 51-10 75-20a373 373 0 0 0 153-139c21-36 37-73 50-113 7-21 10-42 14-64 4-23 6-45 8-68v-44c0-22-2-44-6-65-4-23-9-45-15-67a439 439 0 0 0-111-193 289 289 0 0 0-147-76l-25-2c-11-1-23-2-34-1-16 2-33 4-49 8-26 6-49 17-72 30-12 6-22 14-33 21-12 7-21 17-31 26a554 554 0 0 0-63 82 491 491 0 0 0-66 239l1 46a452 452 0 0 0 23 132c6 20 13 40 22 60 7 18 19 35 29 52a386 386 0 0 0 134 128z"/><path d="M384 200c12-7 24-13 36-17 19-6 37-8 55 2 14 8 21 21 22 37 2 16-2 31-6 47-2 5-4 9-8 13-3 3-6 4-10 2-5-3-7-7-6-11 0-7 4-12 6-18 3-8 5-16 5-24 2-21-13-35-35-32-25 4-45 16-63 32-16 13-29 28-36 48-7 18-4 30 11 42 11 9 24 17 37 25 11 8 22 15 31 26l6 9c2 3 4 4 7 3l43-12 10-2c5 1 7-2 10-5 9-10 18-18 31-24 10-6 34-4 42 5 2 2 4 3 6 2 4-2 8-2 10 1 3 4 3 8 1 11-5 11-9 23-12 34-3 8-4 16-4 24 1 6 4 9 10 7 9-3 15-10 22-16 8-6 15-14 22-21 4-4 4-8 5-12 4-24 11-47 20-69 7-22 18-43 32-61 7-10 15-18 28-21 12-3 22 5 22 18 1 16-5 31-11 45a307 307 0 0 1-71 105c-2 2-3 6-3 9-1 8-1 16 1 24 3 11 12 15 24 10 17-6 31-18 44-31l19-20 5-4c5-1 8 1 10 5 2 6-1 11-5 15-13 14-26 30-42 40-12 8-25 15-39 16-16 2-31-10-35-25-2-5-3-11-2-17-5 0-7 3-9 5-9 8-19 16-30 21-14 7-28 2-33-10-3-6-3-13-2-20v-5l-6 7c-10 12-21 23-35 31-8 4-16 7-26 4-8-3-15-11-15-20-1-11 3-22 7-32l1-5h-5l-33 10c-4 1-5 3-5 7 1 13 0 25-5 37-6 15-15 26-26 37-15 15-33 25-53 30-14 4-28 8-43 3-20-6-26-21-21-39 3-11 12-19 20-26 22-21 49-34 77-47l20-9c4-2 4-4 2-7-6-6-11-12-18-17l-39-25c-9-5-16-12-23-19a47 47 0 0 1-9-40c3-21 15-37 27-52 11-13 24-24 37-34m-76 284c0 8 3 12 11 14 7 2 14 1 20-1 27-6 49-20 66-41 9-11 13-25 15-39 0-5-2-7-6-5-20 8-39 18-58 28-12 7-23 16-33 25-6 6-12 11-15 19m186-55c3 2 6 2 9 0l12-7 27-29 17-23c3-5 2-10-3-12-4-3-9-4-14-2-6 2-12 5-17 9-15 14-27 31-32 51-1 4-4 9 1 13m183-131a398 398 0 0 0-17 57c12-15 22-31 31-48 6-11 12-21 16-33 3-7 6-15 7-23l-1-4c-2-1-3 0-4 1l-6 6c-12 13-19 28-26 44zM657 565l4 7v-28c0-4 0-6 5-6s4 3 4 6v43c0 2 1 5-3 6-3 1-6 0-8-4l-13-24c-1-2-1-4-4-6v27c0 3 1 7-5 7-5 0-5-3-5-7l1-27v-14c0-3-1-6 3-8 4-1 6 2 8 5l13 23zM684 645c3 0 5 0 5 3 3 12-6 24-17 26-10 2-20-3-23-13-5-12-5-23 1-34 4-9 13-9 21-9 9 1 13 5 16 12 0 3 0 4-3 6-2 1-5 1-6-2-3-6-7-8-13-7-5 1-9 6-9 12-1 8-2 16 4 23 6 6 15 4 18-3 2-4 1-6-3-6s-9 1-8-5c1-5 6-3 9-4l8 1zM371 700c14-4 24 1 27 16 2 7 1 15 0 22-2 10-10 17-19 17s-16-3-20-15c-3-9-3-18 0-27 1-7 5-11 12-13m17 37c1-7 2-15-1-22-1-4-4-8-9-8s-7 3-9 7c-3 7-3 14-1 22 1 5 4 9 9 9 6 1 9-3 11-8zM323 649c1-6 0-11 2-16 3-9 11-15 20-15s17 6 20 15c3 10 2 20-2 30-2 7-8 12-16 12s-15-3-19-10c-3-5-4-10-5-16m29 13c6-9 6-18 3-27-2-6-6-8-12-8-5 1-8 5-9 9-2 7-2 14 0 21 4 8 10 10 18 5zM431 587l-8-12c-1-2-2-3-5-2-2 0-2 2-2 4v12c-1 3-2 5-6 4-3 0-3-2-3-5v-34l-1-10c0-3 1-6 5-5h16c6 0 11 3 13 9 2 7 1 14-4 19-4 3-4 6-1 9l6 11c1 1 4 3 1 5s-6 2-8 0c-2-1-2-3-3-5m-14-39c-3 4-1 8-1 13l2 2c3 0 7 0 10-2s3-5 3-8c-1-3-3-4-6-5h-8zM536 653c-1-8 0-16 3-23 3-8 10-12 18-12s15 3 18 10c6 13 6 25-2 37-4 8-11 11-20 9-8-1-12-7-15-14l-2-7m29 8c5-8 6-17 2-26-1-5-6-8-11-8-5 1-8 4-9 9-2 6-2 13-1 20 3 9 11 12 19 5zM468 667c1 2 4 4 1 6s-6 2-8-1c-3-3-4-6-6-10l-3-5c-1-2-3-5-6-4-4 1-2 4-2 7l-1 11c0 2-2 4-5 3-2 0-3-2-3-4v-47c0-2 0-4 2-4 8 0 15-2 22 2 9 4 13 16 6 24-5 6-4 11 0 17l3 5m-25-30c0 7 1 7 8 7 5-1 8-4 8-9-1-5-4-7-11-7-6 0-4 4-5 7v2zM737 621c6-4 9-2 9 4v43c0 3 0 6-4 6-5 0-5-3-5-6v-13c0-3-1-5-5-5h-13c-3 0-5 2-5 5l1 12c1 4 0 7-4 7-3 0-5-1-6-5v-39l1-8c0-2 1-4 4-4s4 2 4 5v14c0 3 2 5 5 5h13c4 0 5-2 5-5v-16zM492 673c-6 0-7-1-7-7v-39c0-6 2-8 8-8 4 0 9-1 14 1 7 1 12 6 14 13s3 15 1 22c-3 12-11 18-23 18h-7m1-40v26c0 2 1 5 4 5 6 1 14-4 15-10 2-4 2-9 2-13-1-8-8-14-15-14-4 0-6 1-6 6zM609 555l10 31c0 3 2 6-2 7s-7 0-8-4v-2c-3-9-7-11-15-10-3 1-4 2-5 5l-3 8c-1 3-4 4-7 3s-2-4-1-6l14-45c1-3 2-5 5-4 4 0 7 0 9 4l3 13m-9 1c-4 1-4 5-5 7s-1 4 1 5h5c2-1 2-3 1-5l-2-7zM667 749l-2 3c-2 3-5 3-7 2-3-1-2-4-1-6l15-45c1-3 3-4 6-4s7 0 8 4c3 16 9 30 13 46 0 2 0 4-2 5-3 1-6 1-7-2l-2-8c-1-3-3-5-7-5h-2c-9 0-9 0-12 10m13-32c-1-1-1-2-3-2l-4 14h10l-3-12zM361 588c-1 3-2 6-6 6s-5-2-4-6l12-34 3-11c1-3 2-5 6-5 3 1 6 1 7 5l13 46c1 2 2 5-1 5-3 1-6 1-7-2l-1-3c-3-9-3-8-12-9-5 0-9 2-10 8m15-23-3-11c-3 6-5 11-5 16 6 2 9 1 8-5zM566 575c2 10-5 17-15 19-9 2-18-3-21-11-1-3-1-5 2-7 3-1 5 0 7 2 3 7 8 8 14 6 2-1 4-3 4-5 1-3-1-5-3-6-4-3-8-4-12-5-9-4-13-11-10-19 2-7 8-11 15-11 8 0 16 4 18 10 1 2 1 4-2 6-2 1-4 0-5-1-3-4-6-6-10-6s-6 2-6 5c-1 2 0 4 3 6l11 5c6 3 9 6 10 12zM468 737l11-34c1-3 2-5 5-4 3 0 7 0 8 4l8 29 5 16c0 3 2 5-2 6-3 1-6 0-7-3l-1-3c-2-8-2-8-11-8-4 0-8 1-9 6l-2 6c-2 3-5 3-7 2-3-1-2-3-2-6l4-11m17-21c-3 4-3 9-4 14l6 1c2 0 3-2 2-4-1-3-1-7-4-11zM291 665h6c3-1 5-3 5-6 1-3-1-5-4-6l-9-4c-8-4-12-9-11-18 0-5 5-10 11-12 7-2 15 0 19 6 2 3 4 5 1 8-4 2-6 1-8-2l-2-2c-4-3-9-2-11 1-2 4 0 7 3 8l12 6c7 4 10 11 8 19-1 6-9 11-17 12-7 0-15-5-18-11-1-3-1-6 2-7 4-2 6 0 7 3 1 2 3 4 6 5zM547 753c-14 6-26 0-30-15-2-8-1-16 1-24 3-11 14-18 25-15 7 1 11 6 14 12 1 2 1 5-1 6-3 1-6 2-8-1l-2-4c-4-7-13-7-17 1s-4 17 0 26c2 4 5 6 9 6s7-1 9-5c2-3 3-5 7-4 3 1 5 2 3 6-2 5-5 8-10 11zM604 737c3-2 6-2 8 0 3 2 1 5 0 7-4 7-10 11-18 11-7 0-14-2-18-9-7-13-6-26 1-38 3-7 11-10 19-10 8 1 13 6 16 13 1 2 2 5-1 6-2 1-5 1-7-1l-1-2c-2-4-5-7-10-7-5 1-8 5-9 9-2 6-2 12-1 17 0 5 2 10 8 12 6 1 9-1 13-8zM630 630v25c-1 14-11 22-23 19-8-2-14-8-14-18l-1-32c-1-3 0-5 4-5 4-1 6 2 6 5l-1 24 3 12c1 3 3 6 7 6s7-2 8-6c2-3 3-7 3-11v-25c0-3 0-5 4-5 3 0 4 2 4 5v6zM392 659c1 4 4 6 8 6s6-2 8-6l2-9v-26c0-3 0-5 4-5 3 0 4 2 4 5v31c0 8-4 15-11 18-6 3-12 2-18-2-4-3-7-7-7-11-2-13-1-25-1-37 0-4 2-4 5-4s4 1 4 4v20c0 6 0 11 2 16zM440 744l4-5c1-4 4-4 7-3 3 2 3 4 1 7-3 7-11 12-19 12-10-1-16-6-19-16-2-10-2-19 2-29 3-8 10-12 19-12 7 0 15 6 18 13 1 2 1 5-2 6s-5 1-7-2c-3-7-6-8-11-8-5 1-10 6-10 12v15c2 9 7 12 17 10zM315 710c0-11 0-11 10-11h14c4 0 6 1 6 5s-3 4-6 4h-11c-4 0-5 3-4 5 0 3-2 8 4 8h8c4 0 6 2 6 6s-3 3-6 3c-12 1-12 1-12 13v6c0 3-2 5-6 5-3 0-4-3-4-6l1-38zM466 554c0-5-2-6-6-6h-5c-3 0-5-2-4-5 0-3 1-4 4-4l31-1c3 0 5 2 5 5 1 4-2 4-5 4-12 0-11 0-11 12v27c0 3 1 7-4 8-4 1-5-2-5-9v-31zM630 720v-15c0-4 0-6 4-6s5 2 5 5v44c1 3 1 6-4 6-4 0-5-2-5-6v-28zM513 554v33c0 4 0 6-4 6s-5-2-5-5l-1-44c0-4 1-6 6-6 4 0 4 3 4 6v10z"/></svg>
